<?xml version="1.0" encoding="UTF-8" standalone="no"?>
<svg
   width="252.17603"
   height="84.383995"
   viewBox="0 0 252.17603 84.383995"
   fill="none"
   version="1.1"
   id="svg2"
   xmlns="http://www.w3.org/2000/svg"
   xmlns:svg="http://www.w3.org/2000/svg">
  <defs
     id="defs2" />
  <path
     d="m 52.704008,10.175999 -1.536,2.496 -2.112,0.96 -2.784,-0.576 -1.152,-0.96 -0.576,-1.152 0.96,-1.3439996 1.536,-0.096 1.056,-0.384 0.576,-1.152 v -1.344 l -2.112,-1.92 -2.304,-1.152 -3.552,-0.864 h -3.936 l -3.552,1.248 -2.4,2.688 -0.576,3.264 0.864,2.7839996 2.688,3.936 7.968,7.584 4.704,5.472 1.728,3.264 1.536,4.32 0.288,3.84 -0.384,3.744 -1.824,4.896 -4.32,5.856 -5.088,3.552 -6.72,2.4 -6.432,0.672 -4.704,-0.384 -6.72,-1.536 -4.2239996,-1.632 -4.704,-3.456 -2.784,-3.456 -1.53599997,-4.512 -0.576000007233,-4.32 1.343999977233,-5.184 2.592,-3.456 3.456,-2.4 4.5119996,-0.96 4.8,0.864 3.168,1.632 1.44,2.304 -0.576,1.536 -1.44,0.384 -1.056,-0.96 -0.864,-0.96 -1.536,-0.864 -2.496,0.096 -3.4559996,1.248 -3.072,3.552 -1.248,3.84 -0.096,4.608 0.96,3.168 2.592,3.168 4.4159996,2.592 5.952,1.632 5.76,0.48 4.032,-0.192 4.224,-0.96 4.512,-2.304 3.456,-3.168 2.688,-4.512 0.48,-5.856 -1.536,-6.24 -3.36,-4.8 -4.416,-4.8 -4.896,-4.992 -3.168,-3.552 -1.536,-3.552 -0.672,-3.456 0.384,-2.4959996 1.152,-2.88 0.96,-1.44 3.264,-2.496 5.088,-1.53599998454515 h 5.376 l 3.648,0.96000000454515 4.224,2.11199998 3.264,3.36 z m 36.0435,33.696 -0.48,3.84 -2.4,5.184 -3.648,4.32 -4.224,3.072 -4.896,1.632 -4.128,0.384 -4.032,-0.768 -2.304,-1.728 -1.728,-1.824 -2.496,5.568 -2.688,4.512 -3.84,6.336 -3.744,4.032 -2.496,2.304 -2.784,2.015997 -3.456,1.632 -1.92,-0.192 -0.384,-1.248 0.576,-0.864 1.92,-0.864 1.92,-1.439997 2.016,-1.824 3.072,-3.744 3.36,-6.816 3.744,-8.928 2.592,-5.088 1.728,-4.608 4.608,-9.984 -2.208,0.48 -1.92,0.672 -1.344,-0.384 -0.48,-1.536 1.728,-1.056 h 2.976 l 2.4,-0.864 3.264,-1.536 2.208,-1.632 1.152,-0.192 1.152,0.96 -0.096,1.728 4.224,-2.112 2.496,-0.48 2.88,0.288 3.072,1.536 2.496,1.92 1.536,2.88 z m -6.432,-0.864 -0.48,-3.552 -1.152,-2.784 -2.592,-1.152 -3.36,1.056 -3.648,2.688 -3.168,3.648 -2.112,3.744 -2.112,5.664 -0.384,3.552 1.632,2.496 3.936,1.152 4.704,-1.728 3.648,-3.84 3.264,-5.184 z m 44.617502,-8.064 -4.32,7.488 -3.648,6.144 -2.016,4.416 -1.056,3.456 0.384,1.824 1.152,1.44 1.344,-0.096 1.344,-1.152 h 1.248 l 0.48,1.248 -1.44,1.92 -3.456,1.152 -3.648,-0.576 h -2.784 l -1.824,-0.384 -0.576,-0.768 -0.096,-1.248 -2.208,1.44 -3.744,1.056 -3.456002,0.096 -5.472,-1.44 -2.88,-3.456 -0.864,-3.36 0.288,-3.84 1.824,-3.84 2.688,-3.36 6.912002,-5.088 4.896,-2.592 7.68,-1.92 6.24,0.096 4.128,0.48 z m -7.776,1.44 -2.4,-0.096 -4.224,0.768 -3.744,1.728 -4.32,2.496 -4.32,3.744 -2.880002,4.224 -0.576,3.168 0.576,2.784 1.632,2.592 3.072002,0.864 2.88,-0.288 2.208,-1.248 2.112,-2.784 4.032,-7.872 z m 43.635,1.056 -0.672,2.208 -1.152,1.728 -1.632,1.248 -2.496,1.056 -1.728,0.384 h -1.152 l -0.384,-0.576 0.288,-0.96 0.576,-0.384 0.672,-0.96 0.864,-1.44 0.096,-1.824 -1.344,-1.056 -2.208,-0.096 -2.304,0.96 -3.264,2.304 -2.88,2.496 -3.648,4.416 -1.344,2.4 -2.208,3.84 -1.44,2.688 -0.288,1.92 0.96,1.344 1.344,-0.096 1.344,-1.248 1.152,0.096 0.576,1.248 -1.536,1.824 -3.456,1.152 -3.552,-0.576 h -2.784 l -2.304,0.096 -0.576,-0.768 -0.192,-1.44 1.44,-1.632 3.072,-5.088 3.744,-6.624 2.496,-4.704 0.672,-1.824 -0.384,-0.096 -2.112,0.672 -1.344,0.48 -1.152,-0.288 -0.192,-0.96 0.192,-0.864 1.44,-0.96 3.648,-1.44 2.976,-0.864 1.92,-0.96 2.112,-0.96 1.44,-0.576 1.248,0.768 0.192,1.344 -1.44,2.112 -0.48,0.864 1.632,-1.152 2.016,-1.056 3.36,-1.44 2.496,-0.864 3.264,-0.384 2.304,0.768 1.536,1.632 z m 50.609,-28.0319996 -0.768,1.1519996 -1.056,0.096 -0.672,-1.1519996 -0.864,-3.264 -2.976,-2.4 h -4.8 l -4.8,2.4 -3.936,4.1279996 -3.84,5.472 -4.704,7.68 -5.088,9.696 -2.016,4.896 -0.096,0.48 2.208,-1.824 4.8,-2.592 4.128,-0.768 4.224,0.48 2.592,2.88 0.192,3.456 -1.824,3.456 -3.456,2.784 -3.552,1.632 -3.648,1.152 -1.056,0.096 0.768,4.512 1.152,4.032 1.248,1.44 1.344,0.576 1.92,-0.576 1.248,-1.152 1.248,0.096 0.576,1.152 -1.536,1.92 -4.32,1.248 -2.688,-0.672 -2.208,-0.288 -2.88,0.384 -0.576,-1.152 0.48,-1.632 -0.48,-4.224 -1.344,-5.088 -1.056,-2.784 0.384,-0.48 7.008,-0.384 3.936,-1.632 2.4,-2.88 0.384,-3.072 -1.345,-2.112 -2.687,0.288 -4.032,1.92 -4.608,4.608 -3.84,4.608 -3.648,5.856 -1.536,3.744 -0.288,2.688 -1.44,1.92 -2.88,-0.096 -1.536,-0.288 -2.881,0.288 -3.168,0.096 -1.824,-1.44 -0.191,-1.44 1.247,-0.576 1.344,0.768 2.784,-0.768 3.073,-3.84 3.648,-7.296 5.664,-10.176 5.76,-10.656 3.456,-5.856 4.608,-6.72 5.376,-5.6639996 5.568,-4.992 4.32,-1.824 4.512,-0.86399998 4.128,1.05599998 3.168,2.88 z m 31.626,-4.416 -0.48,1.152 h -1.248 l -2.016,-2.016 -2.112,-0.768 -2.112,0.288 -2.688,2.208 -4.608,5.3759996 -4.32,8.64 -3.648,7.584 -6.336,13.728 -6.528,13.056 -1.728,4.032 -0.768,2.112 -1.536,1.92 -2.88,-0.096 -1.536,-0.288 -2.881,0.288 -3.264,0.096 -1.632,-1.44 -0.096,-1.44 1.248,-0.576 1.248,0.672 2.88,-0.672 3.361,-3.84 3.168,-5.76 6.239,-12.672 10.081,-18.72 6.624,-9.7919996 4.992,-4.704 4.608,-2.49599998 4.032,0.38399998 2.592,1.44 z m 7.149,31.6799996 -0.384,2.4 -0.96,1.92 -2.112,2.88 -2.496,2.4 -4.128,2.592 -4.032,1.728 -4.8,0.576 -3.264,0.096 -2.016,-0.288 0.864,2.88 3.072,3.168 3.84,1.44 4.896,-0.768 3.168,-1.344 2.208,-1.632 1.728,-0.384 0.576,0.96 -1.728,2.112 -4.896,3.072 -5.472,1.728 -5.472,-0.192 -5.088,-1.824 -3.84,-3.36 -1.632,-4.608 0.384,-4.8 1.92,-3.648 2.592,-2.976 3.648,-3.168 4.512,-2.688 5.28,-1.92 4.224,-0.96 4.512,-0.096 2.304,0.768 1.536,1.44 z m -7.297,2.688 -0.191,-2.4 -1.92,-1.248 -4.128,0.384 -4.128,1.824 -2.592,2.304 -2.688,3.072 -1.536,4.512 2.496,0.672 2.784,-0.288 3.456,-0.864 2.88,-1.44 3.84,-3.552 z"
     fill="#ffffff"
     id="path1" />
</svg>
